<svg xmlns="http://www.w3.org/2000/svg" width="1200" height="420" viewBox="0 0 1200 420" role="img" aria-labelledby="title desc">
  <title id="title">github-management</title>
  <desc id="desc">A conservative GitHub repository management skill workflow from inspection to verified mutation.</desc>
  <defs>
    <linearGradient id="bg" x1="0" y1="0" x2="1" y2="1">
      <stop offset="0" stop-color="#0f172a"/>
      <stop offset="0.52" stop-color="#164e63"/>
      <stop offset="1" stop-color="#14532d"/>
    </linearGradient>
    <linearGradient id="panel" x1="0" y1="0" x2="1" y2="1">
      <stop offset="0" stop-color="#ffffff" stop-opacity="0.16"/>
      <stop offset="1" stop-color="#ffffff" stop-opacity="0.07"/>
    </linearGradient>
    <filter id="shadow" x="-20%" y="-20%" width="140%" height="140%">
      <feDropShadow dx="0" dy="18" stdDeviation="20" flood-color="#020617" flood-opacity="0.28"/>
    </filter>
  </defs>

  <rect width="1200" height="420" rx="0" fill="url(#bg)"/>
  <path d="M0 310 C180 245 310 375 510 304 C710 232 790 145 990 188 C1080 207 1148 188 1200 154 L1200 420 L0 420 Z" fill="#22c55e" opacity="0.18"/>
  <path d="M0 84 C170 154 330 34 505 94 C714 166 786 318 990 274 C1088 253 1154 286 1200 318" fill="none" stroke="#67e8f9" stroke-width="2" opacity="0.38"/>

  <g filter="url(#shadow)">
    <rect x="82" y="68" width="1036" height="284" rx="28" fill="url(#panel)" stroke="#ffffff" stroke-opacity="0.24"/>
  </g>

  <g transform="translate(138 112)">
    <circle cx="42" cy="42" r="42" fill="#f8fafc"/>
    <path d="M42 17c-14.2 0-25.8 11.6-25.8 25.9 0 11.4 7.4 21.1 17.7 24.5 1.3.2 1.8-.6 1.8-1.3v-5c-7.2 1.6-8.7-3.1-8.7-3.1-1.2-3-2.9-3.8-2.9-3.8-2.4-1.7.2-1.7.2-1.7 2.7.2 4.1 2.8 4.1 2.8 2.4 4.1 6.2 2.9 7.7 2.2.2-1.7.9-2.9 1.7-3.6-5.7-.7-11.8-2.9-11.8-12.8 0-2.8 1-5.1 2.7-6.9-.3-.7-1.2-3.4.3-6.9 0 0 2.2-.7 7.1 2.7 2.1-.6 4.3-.9 6.5-.9s4.4.3 6.5.9c4.9-3.4 7.1-2.7 7.1-2.7 1.5 3.5.6 6.2.3 6.9 1.7 1.8 2.7 4.1 2.7 6.9 0 10-6.1 12.1-11.9 12.8 1 .8 1.8 2.5 1.8 5v7.4c0 .7.5 1.5 1.8 1.3 10.3-3.4 17.7-13.1 17.7-24.5C67.8 28.6 56.2 17 42 17Z" fill="#0f172a"/>
  </g>

  <text x="250" y="150" fill="#f8fafc" font-family="Inter, Segoe UI, Arial, sans-serif" font-size="58" font-weight="800">github-management</text>
  <text x="253" y="195" fill="#cffafe" font-family="Inter, Segoe UI, Arial, sans-serif" font-size="24" font-weight="500">Conservative GitHub operations for agents</text>

  <g font-family="Inter, Segoe UI, Arial, sans-serif" font-size="19" font-weight="700">
    <g transform="translate(253 245)">
      <rect width="126" height="46" rx="23" fill="#ecfeff"/>
      <text x="63" y="30" text-anchor="middle" fill="#155e75">Inspect</text>
    </g>
    <path d="M390 268 H438" stroke="#a7f3d0" stroke-width="4" stroke-linecap="round"/>
    <g transform="translate(450 245)">
      <rect width="118" height="46" rx="23" fill="#f0fdf4"/>
      <text x="59" y="30" text-anchor="middle" fill="#166534">Risk</text>
    </g>
    <path d="M580 268 H628" stroke="#a7f3d0" stroke-width="4" stroke-linecap="round"/>
    <g transform="translate(640 245)">
      <rect width="142" height="46" rx="23" fill="#fffbeb"/>
      <text x="71" y="30" text-anchor="middle" fill="#92400e">Confirm</text>
    </g>
    <path d="M794 268 H842" stroke="#a7f3d0" stroke-width="4" stroke-linecap="round"/>
    <g transform="translate(854 245)">
      <rect width="132" height="46" rx="23" fill="#dcfce7"/>
      <text x="66" y="30" text-anchor="middle" fill="#166534">Verify</text>
    </g>
  </g>
</svg>
